# xmcd CD database file
#
# Track frame offsets:
#	150
#	4027
#	23968
#	53795
#	76754
#	99425
#	119713
#	143102
#	163700
#	171352
#	199485
#	215336
#
# Disc length: 3164 seconds
#
# Revision: 0
# Processed by: cddbd v1.5.2PL0 Copyright (c) Steve Scherf et al.
# Submitted via: CDex 1.70beta2
#
DISCID=a30c5a0c
DTITLE=Hypnotix - Star Warps
DYEAR=2001
DGENRE=New Age
TTITLE0=Time Warp
TTITLE1=Back To The Future
TTITLE2=Gamma Spacelab
TTITLE3=Earth 2
TTITLE4=Boom Pang Boing (Clone 1)
TTITLE5=Gulf Breeze
TTITLE6=Ufologic
TTITLE7=Clone 2
TTITLE8=Sedona
TTITLE9=Orion 3
TTITLE10=Area 51
TTITLE11=Cydonia  Giza
EXTD=YEAR: 2001
EXTT0=
EXTT1=
EXTT2=
EXTT3=
EXTT4=
EXTT5=
EXTT6=
EXTT7=
EXTT8=
EXTT9=
EXTT10=
EXTT11=
PLAYORDER=
